<mxfile host="app.diagrams.net" agent="Mozilla/5.0 (Windows NT 10.0; Win64; x64) AppleWebKit/537.36 (KHTML, like Gecko) Chrome/131.0.0.0 Safari/537.36" version="24.8.9">
  <diagram name="Page-1" id="nOcI2uy97ZfqhqoLoMR6">
    <mxGraphModel dx="2286" dy="1572" grid="0" gridSize="10" guides="1" tooltips="1" connect="1" arrows="1" fold="1" page="0" pageScale="1" pageWidth="850" pageHeight="1100" math="0" shadow="0">
      <root>
        <mxCell id="0" />
        <mxCell id="1" parent="0" />
        <mxCell id="njqBwK1wTSrxxixn_Bu1-10" style="edgeStyle=orthogonalEdgeStyle;rounded=0;orthogonalLoop=1;jettySize=auto;html=1;" edge="1" parent="1" source="njqBwK1wTSrxxixn_Bu1-1" target="njqBwK1wTSrxxixn_Bu1-2">
          <mxGeometry relative="1" as="geometry">
            <mxPoint x="142" y="-91" as="targetPoint" />
            <Array as="points">
              <mxPoint x="138" y="-94" />
              <mxPoint x="138" y="-94" />
            </Array>
          </mxGeometry>
        </mxCell>
        <mxCell id="njqBwK1wTSrxxixn_Bu1-11" value="&amp;nbsp;Input: Any other Character&amp;nbsp;&amp;nbsp;" style="edgeLabel;html=1;align=center;verticalAlign=middle;resizable=0;points=[];" vertex="1" connectable="0" parent="njqBwK1wTSrxxixn_Bu1-10">
          <mxGeometry x="0.0175" y="3" relative="1" as="geometry">
            <mxPoint as="offset" />
          </mxGeometry>
        </mxCell>
        <mxCell id="njqBwK1wTSrxxixn_Bu1-18" style="edgeStyle=orthogonalEdgeStyle;rounded=0;orthogonalLoop=1;jettySize=auto;html=1;exitX=0.5;exitY=1;exitDx=0;exitDy=0;" edge="1" parent="1" source="njqBwK1wTSrxxixn_Bu1-1">
          <mxGeometry relative="1" as="geometry">
            <mxPoint x="-66" y="-18" as="targetPoint" />
            <Array as="points">
              <mxPoint x="359" y="12" />
              <mxPoint x="-65" y="12" />
            </Array>
          </mxGeometry>
        </mxCell>
        <mxCell id="njqBwK1wTSrxxixn_Bu1-19" value="&amp;nbsp;Input: &#39;&lt;b&gt;N&lt;/b&gt;&#39; + &quot;&lt;b&gt;Turn LED ON&lt;/b&gt;&quot;&amp;nbsp;" style="edgeLabel;html=1;align=center;verticalAlign=middle;resizable=0;points=[];" vertex="1" connectable="0" parent="njqBwK1wTSrxxixn_Bu1-18">
          <mxGeometry x="-0.0928" y="-2" relative="1" as="geometry">
            <mxPoint as="offset" />
          </mxGeometry>
        </mxCell>
        <mxCell id="njqBwK1wTSrxxixn_Bu1-1" value="STATE_O:&lt;br&gt;&lt;br&gt;Received &#39;O&#39;, waiting for &#39;N&#39; or &#39;F&#39;" style="ellipse;whiteSpace=wrap;html=1;fillColor=#FFFF99;" vertex="1" parent="1">
          <mxGeometry x="255" y="-229" width="207" height="204" as="geometry" />
        </mxCell>
        <mxCell id="njqBwK1wTSrxxixn_Bu1-6" style="edgeStyle=orthogonalEdgeStyle;rounded=0;orthogonalLoop=1;jettySize=auto;html=1;entryX=0;entryY=0.5;entryDx=0;entryDy=0;" edge="1" parent="1" source="njqBwK1wTSrxxixn_Bu1-2" target="njqBwK1wTSrxxixn_Bu1-1">
          <mxGeometry relative="1" as="geometry" />
        </mxCell>
        <mxCell id="njqBwK1wTSrxxixn_Bu1-7" value="&amp;nbsp;Input: &#39;&lt;b&gt;O&lt;/b&gt;&#39;&amp;nbsp;" style="edgeLabel;html=1;align=center;verticalAlign=middle;resizable=0;points=[];" vertex="1" connectable="0" parent="njqBwK1wTSrxxixn_Bu1-6">
          <mxGeometry x="0.0367" y="1" relative="1" as="geometry">
            <mxPoint as="offset" />
          </mxGeometry>
        </mxCell>
        <mxCell id="njqBwK1wTSrxxixn_Bu1-13" style="edgeStyle=orthogonalEdgeStyle;rounded=0;orthogonalLoop=1;jettySize=auto;html=1;entryX=0.034;entryY=0.333;entryDx=0;entryDy=0;exitX=0.976;exitY=0.358;exitDx=0;exitDy=0;exitPerimeter=0;entryPerimeter=0;" edge="1" parent="1" source="njqBwK1wTSrxxixn_Bu1-1" target="njqBwK1wTSrxxixn_Bu1-3">
          <mxGeometry relative="1" as="geometry">
            <mxPoint x="-66.5" y="-324" as="targetPoint" />
            <Array as="points">
              <mxPoint x="457" y="-161" />
            </Array>
          </mxGeometry>
        </mxCell>
        <mxCell id="njqBwK1wTSrxxixn_Bu1-14" value="&amp;nbsp;Input: &#39;&lt;b&gt;F&lt;/b&gt;&#39;&amp;nbsp;" style="edgeLabel;html=1;align=center;verticalAlign=middle;resizable=0;points=[];" vertex="1" connectable="0" parent="njqBwK1wTSrxxixn_Bu1-13">
          <mxGeometry x="-0.1001" y="-5" relative="1" as="geometry">
            <mxPoint y="-9" as="offset" />
          </mxGeometry>
        </mxCell>
        <mxCell id="njqBwK1wTSrxxixn_Bu1-2" value="STATE IDLE:&lt;br&gt;&lt;br&gt;&lt;div&gt;Waiting for &#39;&lt;b&gt;O&lt;/b&gt;&#39;&lt;/div&gt;" style="ellipse;whiteSpace=wrap;html=1;fillColor=#00CC00;" vertex="1" parent="1">
          <mxGeometry x="-170" y="-229" width="207" height="204" as="geometry" />
        </mxCell>
        <mxCell id="njqBwK1wTSrxxixn_Bu1-21" style="edgeStyle=orthogonalEdgeStyle;rounded=0;orthogonalLoop=1;jettySize=auto;html=1;exitX=0.5;exitY=0;exitDx=0;exitDy=0;" edge="1" parent="1" source="njqBwK1wTSrxxixn_Bu1-3">
          <mxGeometry relative="1" as="geometry">
            <mxPoint x="816.5" y="-208" as="targetPoint" />
          </mxGeometry>
        </mxCell>
        <mxCell id="njqBwK1wTSrxxixn_Bu1-22" style="edgeStyle=orthogonalEdgeStyle;rounded=0;orthogonalLoop=1;jettySize=auto;html=1;entryX=0.5;entryY=0;entryDx=0;entryDy=0;" edge="1" parent="1" source="njqBwK1wTSrxxixn_Bu1-3" target="njqBwK1wTSrxxixn_Bu1-2">
          <mxGeometry relative="1" as="geometry">
            <Array as="points">
              <mxPoint x="817" y="-287" />
              <mxPoint x="-66" y="-287" />
            </Array>
          </mxGeometry>
        </mxCell>
        <mxCell id="njqBwK1wTSrxxixn_Bu1-23" value="&amp;nbsp;Input: &#39;&lt;b&gt;F&lt;/b&gt;&#39; + &quot;&lt;b&gt;Turn LED OFF&lt;/b&gt;&quot;&amp;nbsp;" style="edgeLabel;html=1;align=center;verticalAlign=middle;resizable=0;points=[];" vertex="1" connectable="0" parent="njqBwK1wTSrxxixn_Bu1-22">
          <mxGeometry x="-0.018" y="7" relative="1" as="geometry">
            <mxPoint x="1" as="offset" />
          </mxGeometry>
        </mxCell>
        <mxCell id="njqBwK1wTSrxxixn_Bu1-3" value="STATE_F:&lt;div&gt;&lt;br&gt;&lt;/div&gt;&lt;div&gt;Received &#39;&lt;b&gt;F&lt;/b&gt;&#39;, Waiting for next &#39;&lt;b&gt;F&lt;/b&gt;&#39;&lt;/div&gt;" style="ellipse;whiteSpace=wrap;html=1;fillColor=#FF3333;" vertex="1" parent="1">
          <mxGeometry x="713" y="-229" width="207" height="204" as="geometry" />
        </mxCell>
        <mxCell id="njqBwK1wTSrxxixn_Bu1-24" style="edgeStyle=orthogonalEdgeStyle;rounded=0;orthogonalLoop=1;jettySize=auto;html=1;entryX=0.71;entryY=0.044;entryDx=0;entryDy=0;entryPerimeter=0;exitX=0.415;exitY=0;exitDx=0;exitDy=0;exitPerimeter=0;" edge="1" parent="1" source="njqBwK1wTSrxxixn_Bu1-3" target="njqBwK1wTSrxxixn_Bu1-2">
          <mxGeometry relative="1" as="geometry">
            <Array as="points">
              <mxPoint x="799" y="-250" />
              <mxPoint x="-23" y="-250" />
            </Array>
          </mxGeometry>
        </mxCell>
        <mxCell id="njqBwK1wTSrxxixn_Bu1-25" value="&amp;nbsp;Invalid/unexpected character: &quot;Return to &lt;b&gt;STATE IDLE&lt;/b&gt;&quot;&amp;nbsp;" style="edgeLabel;html=1;align=center;verticalAlign=middle;resizable=0;points=[];" vertex="1" connectable="0" parent="njqBwK1wTSrxxixn_Bu1-24">
          <mxGeometry x="0.0118" y="1" relative="1" as="geometry">
            <mxPoint as="offset" />
          </mxGeometry>
        </mxCell>
        <mxCell id="njqBwK1wTSrxxixn_Bu1-30" style="edgeStyle=none;rounded=0;orthogonalLoop=1;jettySize=auto;html=1;exitX=1;exitY=1;exitDx=0;exitDy=0;fillColor=#CCCCCC;" edge="1" parent="1" source="njqBwK1wTSrxxixn_Bu1-28" target="njqBwK1wTSrxxixn_Bu1-2">
          <mxGeometry relative="1" as="geometry" />
        </mxCell>
        <mxCell id="njqBwK1wTSrxxixn_Bu1-28" value="&lt;b&gt;Initial State&lt;/b&gt;" style="ellipse;whiteSpace=wrap;html=1;fillColor=#CCCCCC;" vertex="1" parent="1">
          <mxGeometry x="-276" y="-331" width="80" height="80" as="geometry" />
        </mxCell>
        <mxCell id="njqBwK1wTSrxxixn_Bu1-31" value="&lt;font style=&quot;font-size: 36px;&quot; face=&quot;Times New Roman&quot;&gt;UART LED State Machine Diagram&lt;/font&gt;" style="text;strokeColor=none;align=center;fillColor=none;html=1;verticalAlign=middle;whiteSpace=wrap;rounded=0;" vertex="1" parent="1">
          <mxGeometry x="2" y="-437" width="701" height="30" as="geometry" />
        </mxCell>
      </root>
    </mxGraphModel>
  </diagram>
</mxfile>
